<?xml version="1.0" encoding="UTF-8" standalone="no"?>
<svg
   inkscape:version="1.1.1 (3bf5ae0d25, 2021-09-20)"
   sodipodi:docname="logo2.svg"
   id="svg60002"
   style="fill-rule:evenodd;clip-rule:evenodd;stroke-linecap:round;stroke-linejoin:round;stroke-miterlimit:1.5;"
   xml:space="preserve"
   version="1.1"
   viewBox="0 0 7016 7016"
   height="100%"
   width="100%"
   xmlns:inkscape="http://www.inkscape.org/namespaces/inkscape"
   xmlns:sodipodi="http://sodipodi.sourceforge.net/DTD/sodipodi-0.dtd"
   xmlns="http://www.w3.org/2000/svg"
   xmlns:svg="http://www.w3.org/2000/svg"><defs
     id="defs60006"><filter
       style="color-interpolation-filters:sRGB;"
       inkscape:label="Color Shift"
       id="filter1718"
       x="0"
       y="0"
       width="1"
       height="1"><feColorMatrix
         type="hueRotate"
         values="343"
         result="color1"
         id="feColorMatrix1714" /><feColorMatrix
         type="saturate"
         values="1"
         result="color2"
         id="feColorMatrix1716" /></filter></defs><sodipodi:namedview
     id="namedview60004"
     pagecolor="#ffffff"
     bordercolor="#666666"
     borderopacity="1.0"
     inkscape:pageshadow="2"
     inkscape:pageopacity="0.0"
     inkscape:pagecheckerboard="0"
     showgrid="false"
     inkscape:zoom="0.088388348"
     inkscape:cx="7342.5968"
     inkscape:cy="6132.03"
     inkscape:window-width="2891"
     inkscape:window-height="1966"
     inkscape:window-x="98"
     inkscape:window-y="-11"
     inkscape:window-maximized="1"
     inkscape:current-layer="layer4" /><g
     inkscape:groupmode="layer"
     id="layer4"
     inkscape:label="Layer 2"><path
       d="M 3467.5202,36.07403 C 5301.37,1355.434 6578.04,3213.854 6937.87,6007.244 c -2483.9998,916.919 -4602.9698,975.318 -6868.3098,0 -348.367,-1583.691 2059.91,-5647.02097 3397.96,-5971.17097 z"
       style="clip-rule:evenodd;display:inline;fill:#36274b;fill-opacity:1;fill-rule:evenodd;stroke:#4d4d4d;stroke-width:29.17px;stroke-linecap:round;stroke-linejoin:round;stroke-miterlimit:1.5"
       id="path1639" /><path
       d="m 3467.52,36.074 c 1833.85,1319.36 3110.52,3177.78 3470.35,5971.17 -2484,916.919 -4602.97,975.318 -6868.31,0 C -278.807,4423.553 2129.47,360.223 3467.52,36.073 Z"
       style="clip-rule:evenodd;display:inline;fill:#ffffff;fill-rule:evenodd;stroke:#4d4d4d;stroke-width:29.17px;stroke-linecap:round;stroke-linejoin:round;stroke-miterlimit:1.5"
       id="path862" /><g
       id="g59998"
       style="fill-rule:evenodd;clip-rule:evenodd;stroke-linecap:round;stroke-linejoin:round;stroke-miterlimit:1.5;filter:url(#filter1718)"><path
         d="M2370.05,2758.05c0,0 1302.86,2239.97 2052.5,2861.13c-911.948,276.175 -2018.53,131.902 -3133.26,-134.874c338.671,-889.303 1080.75,-2726.26 1080.75,-2726.26Z"
         style="fill:#c599ce;"
         id="path59922" /><path
         d="M3467.47,3096.38l982.754,-286.823l323.855,300.634l114.401,304.029l834.626,2058.42l-1377.76,148.129c-705.6,-781.108 -1423.05,-1757.64 -1978.04,-2796.92l1100.16,272.534Z"
         style="fill:#e8c0ee;"
         id="path59924" /><path
         d="M 1128.64,2577.73 2767.124,1357.2554 C 2625.759,1949.2054 2455.786,2514.7 2266.103,3082.49 1868.809,2932.552 1490.566,2763.039 1128.637,2577.732 Z"
         style="fill:#9243a2"
         id="path59926"
         sodipodi:nodetypes="ccccc" /><path
         d="M 1298.24,5475.23 858.387,5164.248 2266.103,3082.49 1298.235,5475.231 Z"
         style="fill:#ab7fb8"
         id="path59928"
         sodipodi:nodetypes="ccccc" /><path
         d="m 4738.96,3190.94 919.67,2256.838 c 139.4786,-100.1874 272.3429,-206.7247 388.357,-329.438 L 4738.963,3190.938 Z"
         style="fill:#e4b8ed"
         id="path59930"
         sodipodi:nodetypes="ccccc" /><path
         d="m 4738.96,3190.94 c -250.803,-619.912 -409.438,-1228.618 -561.485,-1848.538 565.637,417.592 1124.079,817.668 1668.729,1273.738 94.916,834.069 156.325,1668.14 200.783,2502.2 -436.008,-636.386 -872.016,-1274.1 -1308.02,-1927.41 z"
         style="fill:#eedef1"
         id="path59932"
         sodipodi:nodetypes="cccccc" /><path
         d="M 4320.6597,5594.1912 5658.63,5447.778 5083.855,4037.516 C 4125.229,3745.832 3206.29,3386.6335 2409.01,2901.3285 c 544.3857,950.3364 1197.1577,1958.6329 1911.6497,2692.8627 z"
         style="fill:#ffffff;fill-opacity:0.15"
         id="path59936"
         sodipodi:nodetypes="ccccc" /><path
         d="M 2767.95,1348.2 2204.469,1034.379 C 1789.508,1501.304 1409.352,2038.522 1128.637,2577.732 L 2767.124,1357.2554 Z"
         style="fill:#592466"
         id="path59938"
         sodipodi:nodetypes="ccccc" /><path
         d="M 2771.35,1359.1 3467.061,36.39 c -306.164,80.259 -679.226,296.381 -1264.71,1000.06 l 564.773,320.8054 z"
         style="fill:#763683"
         id="path59940"
         sodipodi:nodetypes="ccccc" /><path
         d="m 3467.06,36.393 c 10.854,517.341 14.273,1036.65 -15.351,1551.29 L 2767.124,1357.2554 3467.06,36.392 Z"
         style="fill:#e6d8e8"
         id="path59942"
         sodipodi:nodetypes="scccs" /><path
         d="m 3467.06,36.393 c -287.0323,430.54846 14.273,1036.65 -15.351,1551.29 L 2767.124,1357.2554 3467.062,36.39 Z m -0.92,3.871 -699.016,1316.9914 681.532,227.1846 c 15.3269,-512.869 11.2954,-1024.28936 17.484,-1544.182 z"
         style="fill:#e6d8e8"
         id="path59944"
         sodipodi:nodetypes="scccsccccc" /><path
         d="M 858.387,5164.248 C 585.55,5479.195 317.044,5786.468 69.561,6007.246 -20.45,5572.034 99.13,4955.54 322.192,4288.84 c 266.47545,188.9797 383.91477,554.6232 536.195,875.408 z"
         style="fill:#451f62"
         id="path59946"
         sodipodi:nodetypes="cccc" /><path
         d="M 1128.637,2577.732 C 820.015,3101.258 551.681,3666.42 322.192,4288.84 l 536.195,875.408 c 264.7578,-836.1646 309.6308,-1831.939 270.25,-2586.516 z"
         style="fill:#693277"
         id="path59948"
         sodipodi:nodetypes="cccc" /><path
         d="M3448.87,1585.36l739.179,-245.08l-720.987,-1303.89l-18.192,1548.97Z"
         style="fill:#f1d4f7;"
         id="path59950" /><path
         d="m 4177.475,1342.402 c 172.7591,-81.7602 344.6044,-166.0789 510.78,-266.273 C 4302.151,681.29 3870.148,324.326 3467.061,36.39 c 224.4409,440.70866 449.6924,882.22972 710.414,1306.012 z"
         style="fill:#9c72bc"
         id="path59952"
         sodipodi:nodetypes="cccc" /><path
         d="M 5846.17,2616.28 C 5558.691,2057.781 5129.796,1569.919 4688.255,1076.129 l -510.78,266.273 c 544.7773,416.2954 1114.8051,851.1215 1668.695,1273.878 z"
         style="fill:#a583c0"
         id="path59954"
         sodipodi:nodetypes="cccc" /><path
         d="m 3467.7396,3100.3452 c -176.743,-296.815 -263.6406,-722.8657 -389.9976,-1083.0107 123.6153,-144.261 156.392,-161.5457 370.846,-432.783 7.6901,509.537 50.3855,1074.6436 19.1516,1515.7937 z"
         style="fill:#f4e5f6;stroke:#f4e5f6;stroke-width:1px;stroke-linecap:square;stroke-linejoin:miter;paint-order:markers fill stroke"
         id="path59956"
         sodipodi:nodetypes="cccc" /><path
         d="M 3467.7396,3100.3452 4498.34,2894.465 C 4293.238,2600.06 4069.89,2321.875 3830.003,2058.39 Z"
         style="fill:#e0aceb"
         id="path59958"
         sodipodi:nodetypes="cccc" /><path
         d="M 3467.7396,3100.3452 3096.329,2006.22 2423.315,2879.709 Z"
         style="fill:#e6beee"
         id="path59960"
         sodipodi:nodetypes="cccc" /><path
         d="m 5846.02,2616.15 200.967,2502.19 562.789,-698.937 C 6434.19,3786.305 6162.48,3160.943 5846.02,2616.143 Z"
         style="fill:#da9ce6"
         id="path59962"
         sodipodi:nodetypes="ccccc" /><path
         d="M 6938.087,6006.92 C 6877.898,5475.121 6754.255,4921.712 6601.541,4389.912 l -554.554,728.428 c 283.8059,293.9278 592.5064,591.6344 891.1,888.58 z"
         style="fill:#993dae"
         id="path59964"
         sodipodi:nodetypes="cccc" /><path
         d="M858.383,5164.25l1407.72,-2081.76l-1137.46,-504.762l-270.256,2586.52Z"
         style="fill:#7e3c8c;"
         id="path59966" /><path
         d="M 3448.67,1584.407 2266.103,3082.49 2767.124,1357.2554 c 227.5077,72.8912 454.6333,150.9187 681.546,227.1516 z"
         style="fill:#b670c4"
         id="path59968"
         sodipodi:nodetypes="cccc" /><path
         d="M 3843.03,2060.48 3467.7396,3100.3452 3448.67,1584.407 Z"
         style="fill:#e7cced"
         id="path59970"
         sodipodi:nodetypes="cccc" /><path
         d="m 5690.79,5994.37 1247.297,12.55 -891.1,-888.58 -388.357,329.438 c -0.3629,181.0535 21.2677,364.207 32.16,546.592 z"
         style="fill:#eed0f6"
         id="path59972"
         sodipodi:nodetypes="ccccc" /><path
         d="M 4177.47,1342.4 4748.705,3209.06 3448.67,1584.407 c 242.491,-89.882 483.643,-170.372 728.805,-242.005 z"
         style="fill:#c970db"
         id="path59978"
         sodipodi:nodetypes="ccccc" /><path
         d="m 69.56,6007.24 c 391.782,1.677 779.34513,76.7731 1166.3241,-14.7677 134.647,-150.8316 43.3688,-343.6409 64.2071,-516.0039 L 858.387,5164.248 C 583.934,5435.804 328.328,5718.24 69.565,6007.24 Z"
         style="fill:#59146b"
         id="path59982"
         sodipodi:nodetypes="cccccc" /><path
         d="m 1235.72,5992.32 c 119.347,161.135 223.735,327.874 315.757,499.255 -548.124,-101.029 -1016.44,-275.854 -1481.9,-484.346 387.803,-23.808 776.849,-12.155 1166.156,-14.918 z"
         style="fill:#693e72"
         id="path59984"
         sodipodi:nodetypes="ccccc" /><path
         d="m 1235.733,5992.311 c 99.12,169.574 209.538,332.671 314.457,498.989 569.513,142.3 1186.369,232.47 1896.319,226.07 z"
         style="fill:#36274b"
         id="path59986"
         sodipodi:nodetypes="cccc" /><path
         d="m 1235.72,5992.32 c 676.759,17.447 1315.92,-170.728 1972.46,-278.323 L 1298.24,5475.23 c -24.348,173.633 -49.373,343.457 -62.525,517.09 z"
         style="fill:#763683"
         id="path59988"
         sodipodi:nodetypes="scccs" /><path
         d="m 3446.509,6717.37 c -745.264,-224.544 -1506.012,-417.682 -2210.802,-725.041 647.102,-118.777 1314.583,-185.02 1972.473,-278.332 115.2796,334.3672 206.0557,696.2454 238.329,1003.373 z"
         style="fill:#60266d"
         id="path59990"
         sodipodi:nodetypes="cccc" /><path
         d="m 3208.18,5714 238.329,1003.37 c 765.9,-196.431 1507.881,-449.857 2244.281,-723 -818.109,-127.757 -1646.801,-211.62 -2482.611,-280.369 z"
         style="fill:#883899"
         id="path59992"
         sodipodi:nodetypes="ccccc" /><path
         d="M 3208.18,5714 5658.63,5447.778 5690.79,5994.37 3208.175,5714 Z"
         style="fill:#c379d1"
         id="path59994"
         sodipodi:nodetypes="ccccc" /><path
         d="m 5690.79,5994.37 -2244.281,723 c 843.161,-26.412 1710.831,-132.507 2561.711,-380.482 310.677,-90.542 624.221,-200.916 929.867,-329.968 l -1247.3,-12.55 z"
         style="fill:#722f80"
         id="path59996"
         sodipodi:nodetypes="ccsccc" /></g></g><g
     inkscape:groupmode="layer"
     id="layer3"
     inkscape:label="Layer 1"
     style="display:inline"><path
       d="m 5845.99,2616.32 -2378.2689,478.3757 0.6339,616.5873 623.202,381.182 1754.43,-1476.14 z"
       style="clip-rule:evenodd;fill:#ffffff;fill-opacity:0.17;fill-rule:evenodd;stroke-linecap:round;stroke-linejoin:round;stroke-miterlimit:1.5"
       id="path59974"
       sodipodi:nodetypes="cccccc" /><path
       d="m 3468.35,3711.29 623.202,381.182 -641.498,2623.54 -665.41,-2647.75 683.706,-356.98 z"
       style="clip-rule:evenodd;fill:#ffffff;fill-opacity:0.13;fill-rule:evenodd;stroke-linecap:round;stroke-linejoin:round;stroke-miterlimit:1.5"
       id="path59976" /><path
       d="M 2784.65,4068.27 1132.86,2579.85 3467.7211,3094.6957 3468.35,3711.29 2784.644,4068.273 Z"
       style="clip-rule:evenodd;fill:#ffffff;fill-opacity:0.17;fill-rule:evenodd;stroke-linecap:round;stroke-linejoin:round;stroke-miterlimit:1.5"
       id="path59980"
       sodipodi:nodetypes="cccccc" /><path
       d="m 3467.52,36.073 c 1833.85,1319.36 3110.52,3177.78 3470.35,5971.17 -2484,916.919 -4602.97,975.318 -6868.31,-0 C -278.807,4423.552 2129.47,360.222 3467.52,36.072 Z"
       style="clip-rule:evenodd;fill:none;fill-rule:evenodd;stroke:#4d4d4d;stroke-width:29.17px;stroke-linecap:round;stroke-linejoin:round;stroke-miterlimit:1.5"
       id="path60000" /><path
       d="m 4109.7,4116.67 1548.93,1857.5 1270.6,12.101 c -62.414,-403.335 -114.066,-819.203 -216.143,-1196.1 l -2603.39,-673.502 z"
       style="clip-rule:evenodd;fill:#808080;fill-opacity:0.06;fill-rule:evenodd;stroke-linecap:round;stroke-linejoin:round;stroke-miterlimit:1.5"
       id="path59934" /></g></svg>
